<!-- <svg id="wave" style="transform:rotate(180deg); transition: 0.3s" viewBox="0 0 1440 310" version="1.1" xmlns="http://www.w3.org/2000/svg"><defs><linearGradient id="sw-gradient-0" x1="0" x2="0" y1="1" y2="0"><stop stop-color="rgba(232, 28, 255, 1)" offset="0%"></stop><stop stop-color="rgba(64, 201, 255, 1)" offset="100%"></stop></linearGradient></defs><path style="transform:translate(0, 0px); opacity:1" fill="url(#sw-gradient-0)" d="M0,217L80,217C160,217,320,217,480,196.3C640,176,800,134,960,113.7C1120,93,1280,93,1440,113.7C1600,134,1760,176,1920,191.2C2080,207,2240,196,2400,165.3C2560,134,2720,83,2880,56.8C3040,31,3200,31,3360,41.3C3520,52,3680,72,3840,108.5C4000,145,4160,196,4320,217C4480,238,4640,227,4800,206.7C4960,186,5120,155,5280,149.8C5440,145,5600,165,5760,170.5C5920,176,6080,165,6240,149.8C6400,134,6560,114,6720,124C6880,134,7040,176,7200,175.7C7360,176,7520,134,7680,129.2C7840,124,8000,155,8160,144.7C8320,134,8480,83,8640,51.7C8800,21,8960,10,9120,41.3C9280,72,9440,145,9600,149.8C9760,155,9920,93,10080,93C10240,93,10400,155,10560,149.8C10720,145,10880,72,11040,46.5C11200,21,11360,41,11440,51.7L11520,62L11520,310L11440,310C11360,310,11200,310,11040,310C10880,310,10720,310,10560,310C10400,310,10240,310,10080,310C9920,310,9760,310,9600,310C9440,310,9280,310,9120,310C8960,310,8800,310,8640,310C8480,310,8320,310,8160,310C8000,310,7840,310,7680,310C7520,310,7360,310,7200,310C7040,310,6880,310,6720,310C6560,310,6400,310,6240,310C6080,310,5920,310,5760,310C5600,310,5440,310,5280,310C5120,310,4960,310,4800,310C4640,310,4480,310,4320,310C4160,310,4000,310,3840,310C3680,310,3520,310,3360,310C3200,310,3040,310,2880,310C2720,310,2560,310,2400,310C2240,310,2080,310,1920,310C1760,310,1600,310,1440,310C1280,310,1120,310,960,310C800,310,640,310,480,310C320,310,160,310,80,310L0,310Z"></path></svg> -->

<!-- <svg id="wave" style="transform:rotate(180deg); transition: 0.3s" viewBox="0 0 1440 470" version="1.1" xmlns="http://www.w3.org/2000/svg"><defs><linearGradient id="sw-gradient-0" x1="0" x2="0" y1="1" y2="0"><stop stop-color="rgba(232, 28, 255, 1)" offset="0%"></stop><stop stop-color="rgba(64, 201, 255, 1)" offset="100%"></stop></linearGradient></defs><path style="transform:translate(0, 0px); opacity:1" fill="url(#sw-gradient-0)" d="M0,329L30,329C60,329,120,329,180,297.7C240,266,300,204,360,172.3C420,141,480,141,540,172.3C600,204,660,266,720,289.8C780,313,840,298,900,250.7C960,204,1020,125,1080,86.2C1140,47,1200,47,1260,62.7C1320,78,1380,110,1440,164.5C1500,219,1560,298,1620,329C1680,360,1740,345,1800,313.3C1860,282,1920,235,1980,227.2C2040,219,2100,251,2160,258.5C2220,266,2280,251,2340,227.2C2400,204,2460,172,2520,188C2580,204,2640,266,2700,266.3C2760,266,2820,204,2880,195.8C2940,188,3000,235,3060,219.3C3120,204,3180,125,3240,78.3C3300,31,3360,16,3420,62.7C3480,110,3540,219,3600,227.2C3660,235,3720,141,3780,141C3840,141,3900,235,3960,227.2C4020,219,4080,110,4140,70.5C4200,31,4260,63,4290,78.3L4320,94L4320,470L4290,470C4260,470,4200,470,4140,470C4080,470,4020,470,3960,470C3900,470,3840,470,3780,470C3720,470,3660,470,3600,470C3540,470,3480,470,3420,470C3360,470,3300,470,3240,470C3180,470,3120,470,3060,470C3000,470,2940,470,2880,470C2820,470,2760,470,2700,470C2640,470,2580,470,2520,470C2460,470,2400,470,2340,470C2280,470,2220,470,2160,470C2100,470,2040,470,1980,470C1920,470,1860,470,1800,470C1740,470,1680,470,1620,470C1560,470,1500,470,1440,470C1380,470,1320,470,1260,470C1200,470,1140,470,1080,470C1020,470,960,470,900,470C840,470,780,470,720,470C660,470,600,470,540,470C480,470,420,470,360,470C300,470,240,470,180,470C120,470,60,470,30,470L0,470Z"></path></svg> -->

<!-- <svg id="wave" style="transform:rotate(180deg); transition: 0.3s" viewBox="0 0 1440 470" version="1.1" xmlns="http://www.w3.org/2000/svg"><defs><linearGradient id="sw-gradient-0" x1="0" x2="0" y1="1" y2="0"><stop stop-color="rgba(232, 28, 255, 1)" offset="0%"></stop><stop stop-color="rgba(64, 201, 255, 1)" offset="100%"></stop></linearGradient></defs><path style="transform:translate(0, 0px); opacity:1" fill="url(#sw-gradient-0)" d="M0,282L30,250.7C60,219,120,157,180,133.2C240,110,300,125,360,117.5C420,110,480,78,540,125.3C600,172,660,298,720,305.5C780,313,840,204,900,203.7C960,204,1020,313,1080,336.8C1140,360,1200,298,1260,258.5C1320,219,1380,204,1440,227.2C1500,251,1560,313,1620,352.5C1680,392,1740,407,1800,376C1860,345,1920,266,1980,266.3C2040,266,2100,345,2160,344.7C2220,345,2280,266,2340,242.8C2400,219,2460,251,2520,219.3C2580,188,2640,94,2700,109.7C2760,125,2820,251,2880,297.7C2940,345,3000,313,3060,274.2C3120,235,3180,188,3240,156.7C3300,125,3360,110,3420,94C3480,78,3540,63,3600,62.7C3660,63,3720,78,3780,78.3C3840,78,3900,63,3960,47C4020,31,4080,16,4140,15.7C4200,16,4260,31,4290,39.2L4320,47L4320,470L4290,470C4260,470,4200,470,4140,470C4080,470,4020,470,3960,470C3900,470,3840,470,3780,470C3720,470,3660,470,3600,470C3540,470,3480,470,3420,470C3360,470,3300,470,3240,470C3180,470,3120,470,3060,470C3000,470,2940,470,2880,470C2820,470,2760,470,2700,470C2640,470,2580,470,2520,470C2460,470,2400,470,2340,470C2280,470,2220,470,2160,470C2100,470,2040,470,1980,470C1920,470,1860,470,1800,470C1740,470,1680,470,1620,470C1560,470,1500,470,1440,470C1380,470,1320,470,1260,470C1200,470,1140,470,1080,470C1020,470,960,470,900,470C840,470,780,470,720,470C660,470,600,470,540,470C480,470,420,470,360,470C300,470,240,470,180,470C120,470,60,470,30,470L0,470Z"></path></svg> -->

<!-- <svg id="wave" style="transform:rotate(180deg); transition: 0.3s" viewBox="0 0 1440 120" version="1.1" xmlns="http://www.w3.org/2000/svg"><defs><linearGradient id="sw-gradient-0" x1="0" x2="0" y1="1" y2="0"><stop stop-color="rgba(232, 28, 255, 1)" offset="0%"></stop><stop stop-color="rgba(64, 201, 255, 1)" offset="100%"></stop></linearGradient></defs><path style="transform:translate(0, 0px); opacity:1" fill="url(#sw-gradient-0)" d="M0,72L30,64C60,56,120,40,180,34C240,28,300,32,360,30C420,28,480,20,540,32C600,44,660,76,720,78C780,80,840,52,900,52C960,52,1020,80,1080,86C1140,92,1200,76,1260,66C1320,56,1380,52,1440,58C1500,64,1560,80,1620,90C1680,100,1740,104,1800,96C1860,88,1920,68,1980,68C2040,68,2100,88,2160,88C2220,88,2280,68,2340,62C2400,56,2460,64,2520,56C2580,48,2640,24,2700,28C2760,32,2820,64,2880,76C2940,88,3000,80,3060,70C3120,60,3180,48,3240,40C3300,32,3360,28,3420,24C3480,20,3540,16,3600,16C3660,16,3720,20,3780,20C3840,20,3900,16,3960,12C4020,8,4080,4,4140,4C4200,4,4260,8,4290,10L4320,12L4320,120L4290,120C4260,120,4200,120,4140,120C4080,120,4020,120,3960,120C3900,120,3840,120,3780,120C3720,120,3660,120,3600,120C3540,120,3480,120,3420,120C3360,120,3300,120,3240,120C3180,120,3120,120,3060,120C3000,120,2940,120,2880,120C2820,120,2760,120,2700,120C2640,120,2580,120,2520,120C2460,120,2400,120,2340,120C2280,120,2220,120,2160,120C2100,120,2040,120,1980,120C1920,120,1860,120,1800,120C1740,120,1680,120,1620,120C1560,120,1500,120,1440,120C1380,120,1320,120,1260,120C1200,120,1140,120,1080,120C1020,120,960,120,900,120C840,120,780,120,720,120C660,120,600,120,540,120C480,120,420,120,360,120C300,120,240,120,180,120C120,120,60,120,30,120L0,120Z"></path></svg> -->

<!-- <svg id="wave" style="transform:rotate(180deg); transition: 0.3s" viewBox="0 0 1440 480" version="1.1" xmlns="http://www.w3.org/2000/svg"><defs><linearGradient id="sw-gradient-0" x1="0" x2="0" y1="1" y2="0"><stop stop-color="rgba(232, 28, 255, 1)" offset="0%"></stop><stop stop-color="rgba(64, 201, 255, 1)" offset="100%"></stop></linearGradient></defs><path style="transform:translate(0, 0px); opacity:1" fill="url(#sw-gradient-0)" d="M0,288L30,280C60,272,120,256,180,256C240,256,300,272,360,232C420,192,480,96,540,56C600,16,660,32,720,96C780,160,840,272,900,272C960,272,1020,160,1080,160C1140,160,1200,272,1260,312C1320,352,1380,320,1440,328C1500,336,1560,384,1620,384C1680,384,1740,336,1800,328C1860,320,1920,352,1980,320C2040,288,2100,192,2160,184C2220,176,2280,256,2340,312C2400,368,2460,400,2520,384C2580,368,2640,304,2700,240C2760,176,2820,112,2880,128C2940,144,3000,240,3060,248C3120,256,3180,176,3240,128C3300,80,3360,64,3420,48C3480,32,3540,16,3600,40C3660,64,3720,128,3780,144C3840,160,3900,128,3960,120C4020,112,4080,128,4140,144C4200,160,4260,176,4290,184L4320,192L4320,480L4290,480C4260,480,4200,480,4140,480C4080,480,4020,480,3960,480C3900,480,3840,480,3780,480C3720,480,3660,480,3600,480C3540,480,3480,480,3420,480C3360,480,3300,480,3240,480C3180,480,3120,480,3060,480C3000,480,2940,480,2880,480C2820,480,2760,480,2700,480C2640,480,2580,480,2520,480C2460,480,2400,480,2340,480C2280,480,2220,480,2160,480C2100,480,2040,480,1980,480C1920,480,1860,480,1800,480C1740,480,1680,480,1620,480C1560,480,1500,480,1440,480C1380,480,1320,480,1260,480C1200,480,1140,480,1080,480C1020,480,960,480,900,480C840,480,780,480,720,480C660,480,600,480,540,480C480,480,420,480,360,480C300,480,240,480,180,480C120,480,60,480,30,480L0,480Z"></path></svg> -->

<!-- <svg id="wave" style="transform:rotate(180deg); transition: 0.3s" viewBox="0 0 1440 470" version="1.1" xmlns="http://www.w3.org/2000/svg"><defs><linearGradient id="sw-gradient-0" x1="0" x2="0" y1="1" y2="0"><stop stop-color="rgba(232, 28, 255, 1)" offset="0%"></stop><stop stop-color="rgba(64, 201, 255, 1)" offset="100%"></stop></linearGradient></defs><path style="transform:translate(0, 0px); opacity:1" fill="url(#sw-gradient-0)" d="M0,282L12.6,235C25.3,188,51,94,76,62.7C101.1,31,126,63,152,70.5C176.8,78,202,63,227,86.2C252.6,110,278,172,303,172.3C328.4,172,354,110,379,117.5C404.2,125,429,204,455,227.2C480,251,505,219,531,203.7C555.8,188,581,188,606,172.3C631.6,157,657,125,682,148.8C707.4,172,733,251,758,289.8C783.2,329,808,329,834,274.2C858.9,219,884,110,909,101.8C934.7,94,960,188,985,211.5C1010.5,235,1036,188,1061,156.7C1086.3,125,1112,110,1137,86.2C1162.1,63,1187,31,1213,86.2C1237.9,141,1263,282,1288,289.8C1313.7,298,1339,172,1364,156.7C1389.5,141,1415,235,1440,258.5C1465.3,282,1491,235,1516,227.2C1541.1,219,1566,251,1592,258.5C1616.8,266,1642,251,1667,219.3C1692.6,188,1718,141,1743,148.8C1768.4,157,1794,219,1806,250.7L1818.9,282L1818.9,470L1806.3,470C1793.7,470,1768,470,1743,470C1717.9,470,1693,470,1667,470C1642.1,470,1617,470,1592,470C1566.3,470,1541,470,1516,470C1490.5,470,1465,470,1440,470C1414.7,470,1389,470,1364,470C1338.9,470,1314,470,1288,470C1263.2,470,1238,470,1213,470C1187.4,470,1162,470,1137,470C1111.6,470,1086,470,1061,470C1035.8,470,1011,470,985,470C960,470,935,470,909,470C884.2,470,859,470,834,470C808.4,470,783,470,758,470C732.6,470,707,470,682,470C656.8,470,632,470,606,470C581.1,470,556,470,531,470C505.3,470,480,470,455,470C429.5,470,404,470,379,470C353.7,470,328,470,303,470C277.9,470,253,470,227,470C202.1,470,177,470,152,470C126.3,470,101,470,76,470C50.5,470,25,470,13,470L0,470Z"></path></svg> -->

<svg id="wave" style="transform:rotate(180deg); transition: 0.3s" viewBox="0 0 1440 490" version="1.1" xmlns="http://www.w3.org/2000/svg"><defs><linearGradient id="sw-gradient-0" x1="0" x2="0" y1="1" y2="0"><stop stop-color="rgba(232, 28, 255, 1)" offset="0%"></stop><stop stop-color="rgba(64, 201, 255, 1)" offset="100%"></stop></linearGradient></defs><path style="transform:translate(0, 0px); opacity:1" fill="url(#sw-gradient-0)" d="M0,294L40,245C80,196,160,98,240,65.3C320,33,400,65,480,73.5C560,82,640,65,720,89.8C800,114,880,180,960,179.7C1040,180,1120,114,1200,122.5C1280,131,1360,212,1440,236.8C1520,261,1600,229,1680,212.3C1760,196,1840,196,1920,179.7C2000,163,2080,131,2160,155.2C2240,180,2320,261,2400,302.2C2480,343,2560,343,2640,285.8C2720,229,2800,114,2880,106.2C2960,98,3040,196,3120,220.5C3200,245,3280,196,3360,163.3C3440,131,3520,114,3600,89.8C3680,65,3760,33,3840,89.8C3920,147,4000,294,4080,302.2C4160,310,4240,180,4320,163.3C4400,147,4480,245,4560,269.5C4640,294,4720,245,4800,236.8C4880,229,4960,261,5040,269.5C5120,278,5200,261,5280,228.7C5360,196,5440,147,5520,155.2C5600,163,5680,229,5720,261.3L5760,294L5760,490L5720,490C5680,490,5600,490,5520,490C5440,490,5360,490,5280,490C5200,490,5120,490,5040,490C4960,490,4880,490,4800,490C4720,490,4640,490,4560,490C4480,490,4400,490,4320,490C4240,490,4160,490,4080,490C4000,490,3920,490,3840,490C3760,490,3680,490,3600,490C3520,490,3440,490,3360,490C3280,490,3200,490,3120,490C3040,490,2960,490,2880,490C2800,490,2720,490,2640,490C2560,490,2480,490,2400,490C2320,490,2240,490,2160,490C2080,490,2000,490,1920,490C1840,490,1760,490,1680,490C1600,490,1520,490,1440,490C1360,490,1280,490,1200,490C1120,490,1040,490,960,490C880,490,800,490,720,490C640,490,560,490,480,490C400,490,320,490,240,490C160,490,80,490,40,490L0,490Z"></path></svg>